<svg width="421" height="262" viewBox="0 0 421 262" fill="none" xmlns="http://www.w3.org/2000/svg">
<path d="M32.178 2.42917C32.6912 1.77882 32.58 0.835606 31.9297 0.32244C31.2793 -0.190725 30.3361 -0.0795163 29.8229 0.570832L32.178 2.42917ZM13.0005 123.5L11.6919 124.233L13.0005 123.5ZM45.5005 201L44.0401 201.343L44.0479 201.376L44.0571 201.408L45.5005 201ZM202 238.5L201.35 237.148L202 238.5ZM419.612 233.37C420.369 233.032 420.708 232.144 420.37 231.388L414.863 219.062C414.525 218.306 413.638 217.967 412.881 218.305C412.125 218.643 411.786 219.53 412.124 220.286L417.019 231.242L406.063 236.138C405.307 236.476 404.967 237.363 405.305 238.119C405.643 238.875 406.53 239.215 407.287 238.877L419.612 233.37ZM31.0005 1.5L29.8229 0.570832C28.9063 1.73254 27.9612 2.98814 26.9973 4.33116L28.216 5.20574L29.4347 6.08032C30.3734 4.77219 31.2912 3.55311 32.178 2.42917L31.0005 1.5ZM23.0765 12.9661L21.7978 12.1819C20.239 14.7235 18.6742 17.453 17.1403 20.3467L18.4656 21.0492L19.7909 21.7517C21.2952 18.914 22.8288 16.239 24.3552 13.7503L23.0765 12.9661ZM14.3551 29.4055L12.9897 28.7845C11.723 31.5695 10.5057 34.4647 9.363 37.4543L10.7641 37.9899L12.1653 38.5254C13.285 35.596 14.4782 32.7577 15.7205 30.0266L14.3551 29.4055ZM7.7243 46.7831L6.29123 46.34C5.3755 49.3018 4.54637 52.3339 3.82473 55.423L5.2854 55.7642L6.74608 56.1055C7.45088 53.0884 8.26131 50.1243 9.15736 47.2261L7.7243 46.7831ZM3.51267 64.9001L2.03012 64.672C1.55524 67.7586 1.20018 70.8872 0.984051 74.0457L2.48055 74.1481L3.97705 74.2505C4.18712 71.1805 4.53249 68.1359 4.99523 65.1282L3.51267 64.9001ZM2.26838 83.45L0.768819 83.4861C0.844141 86.6149 1.06983 89.7609 1.46374 92.9128L2.95216 92.7267L4.44059 92.5407C4.05965 89.4927 3.84097 86.4469 3.76795 83.4139L2.26838 83.45ZM4.59303 101.882L3.13298 102.226C3.84812 105.263 4.73553 108.293 5.81097 111.308L7.22376 110.804L8.63656 110.3C7.59949 107.393 6.74335 104.469 6.05309 101.538L4.59303 101.882ZM10.838 119.377L9.49072 120.036C10.1786 121.442 10.9118 122.841 11.6919 124.233L13.0005 123.5L14.3091 122.767C13.5562 121.423 12.8488 120.073 12.1853 118.717L10.838 119.377ZM13.0005 123.5L11.6919 124.233C12.5519 125.768 13.4598 127.251 14.4129 128.683L15.6617 127.853L16.9105 127.022C15.9998 125.653 15.1318 124.235 14.3091 122.767L13.0005 123.5ZM21.9391 135.856L20.835 136.871C23.2075 139.451 25.7536 141.809 28.4473 143.952L29.3813 142.779L30.3152 141.605C27.74 139.556 25.3081 137.303 23.0432 134.84L21.9391 135.856ZM37.7883 148.501L37.0367 149.799C40.0281 151.531 43.142 153.052 46.3514 154.368L46.9207 152.98L47.49 151.593C44.4005 150.325 41.409 148.864 38.54 147.203L37.7883 148.501ZM56.5548 156.246L56.1601 157.693C59.4735 158.596 62.8544 159.311 66.2779 159.845L66.5088 158.363L66.7397 156.88C63.422 156.364 60.1507 155.672 56.9495 154.798L56.5548 156.246ZM76.6345 159.405L76.5566 160.903C79.9856 161.081 83.4333 161.091 86.8764 160.938L86.81 159.44L86.7437 157.941C83.3944 158.089 80.0429 158.08 76.7123 157.907L76.6345 159.405ZM96.9472 158.518L97.1516 160.004C100.567 159.534 103.956 158.909 107.294 158.134L106.955 156.672L106.616 155.211C103.367 155.966 100.068 156.575 96.7429 157.032L96.9472 158.518ZM116.753 153.913L117.227 155.336C120.522 154.239 123.74 152.991 126.856 151.599L126.244 150.23L125.633 148.86C122.609 150.211 119.483 151.423 116.279 152.49L116.753 153.913ZM135.304 145.594L136.059 146.89C139.082 145.129 141.966 143.215 144.68 141.157L143.774 139.962L142.868 138.767C140.255 140.748 137.472 142.595 134.549 144.298L135.304 145.594ZM151.44 133.281L152.504 134.338C154.984 131.842 157.239 129.189 159.232 126.39L158.01 125.52L156.788 124.65C154.896 127.308 152.748 129.836 150.376 132.223L151.44 133.281ZM163.117 116.728L164.481 117.353C165.209 115.765 165.857 114.141 166.421 112.483L165 112L163.58 111.517C163.05 113.077 162.44 114.606 161.754 116.103L163.117 116.728ZM165 112L166.421 112.483C166.941 110.95 167.417 109.434 167.849 107.935L166.407 107.52L164.966 107.105C164.547 108.558 164.086 110.029 163.58 111.517L165 112ZM168.536 98.3879L170.013 98.6493C170.59 95.3927 170.952 92.2273 171.118 89.1581L169.62 89.0774L168.122 88.9968C167.963 91.9411 167.615 94.9858 167.059 98.1265L168.536 98.3879ZM169.488 79.6955L170.982 79.5684C170.702 76.2712 170.181 73.1111 169.445 70.0959L167.987 70.4519L166.53 70.8079C167.23 73.6701 167.726 76.677 167.993 79.8225L169.488 79.6955ZM165.011 61.5644L166.388 60.9684C165.08 57.9479 163.536 55.1223 161.792 52.5028L160.543 53.3341L159.294 54.1655C160.94 56.6363 162.398 59.3043 163.635 62.1604L165.011 61.5644ZM154.658 46.0483L155.733 45.0018C153.454 42.6618 150.989 40.5735 148.384 38.75L147.524 39.9789L146.664 41.2079C149.116 42.9241 151.437 44.8903 153.583 47.0947L154.658 46.0483ZM139.372 35.3643L139.982 33.994C137.012 32.6714 133.938 31.6514 130.812 30.9492L130.483 32.4127L130.155 33.8763C133.085 34.5345 135.97 35.4916 138.762 36.7346L139.372 35.3643ZM121.185 31.3098L121.205 29.8099C119.587 29.7884 117.969 29.8533 116.358 30.0068L116.5 31.5L116.643 32.9932C118.144 32.8502 119.654 32.7896 121.165 32.8096L121.185 31.3098ZM116.5 31.5L116.358 30.0068C114.696 30.1651 112.934 30.4136 111.093 30.7596L111.37 32.2338L111.647 33.708C113.404 33.3779 115.075 33.1425 116.643 32.9932L116.5 31.5ZM101.31 34.9212L100.822 33.5027C97.6485 34.5942 94.3577 35.9493 91.0183 37.5976L91.6822 38.9426L92.3461 40.2877C95.5696 38.6967 98.7427 37.3903 101.798 36.3397L101.31 34.9212ZM82.6543 44.1023L81.833 42.8471C78.9766 44.7161 76.1294 46.815 73.3331 49.1618L74.2974 50.3108L75.2617 51.4598C77.9646 49.1914 80.716 47.1631 83.4756 45.3575L82.6543 44.1023ZM66.728 57.4604L65.6362 56.4318C63.2876 58.9246 61.0094 61.6227 58.8302 64.5382L60.0317 65.4362L61.2332 66.3342C63.3433 63.5111 65.5481 60.9001 67.8197 58.4891L66.728 57.4604ZM54.2576 74.1181L52.9656 73.356C51.2323 76.2946 49.5971 79.4101 48.0795 82.7105L49.4423 83.3372L50.8051 83.9638C52.2804 80.7556 53.8683 77.7306 55.5496 74.8802L54.2576 74.1181ZM45.5502 92.9903L44.1345 92.4945C43.0084 95.7095 41.9875 99.0731 41.0848 102.591L42.5377 102.963L43.9906 103.336C44.8724 99.9004 45.8686 96.619 46.9659 93.4862L45.5502 92.9903ZM40.3452 113.156L38.8678 112.897C38.2809 116.237 37.7942 119.7 37.4164 123.288L38.9082 123.445L40.3999 123.602C40.7707 120.081 41.2479 116.687 41.8226 113.416L40.3452 113.156ZM38.1445 133.831L36.6459 133.767C36.4995 137.166 36.4455 140.668 36.4898 144.274L37.9897 144.256L39.4896 144.237C39.4459 140.685 39.4992 137.239 39.6431 133.896L38.1445 133.831ZM38.3808 154.674L36.8837 154.767C37.094 158.163 37.3872 161.645 37.7678 165.214L39.2594 165.055L40.7509 164.896C40.3749 161.37 40.0854 157.933 39.8779 154.581L38.3808 154.674ZM40.5731 175.381L39.0891 175.599C39.5846 178.965 40.1544 182.403 40.8015 185.915L42.2767 185.643L43.7518 185.371C43.1111 181.894 42.5472 178.492 42.0571 175.162L40.5731 175.381ZM44.3319 195.841L42.8665 196.161C43.24 197.872 43.6311 199.599 44.0401 201.343L45.5005 201L46.9608 200.657C46.5553 198.929 46.1676 197.217 45.7974 195.521L44.3319 195.841ZM45.5005 201L44.0571 201.408C44.5407 203.118 45.0623 204.811 45.6226 206.484L47.045 206.007L48.4673 205.531C47.9224 203.904 47.4148 202.257 46.9439 200.592L45.5005 201ZM50.8747 215.758L49.5097 216.38C50.9918 219.633 52.6451 222.781 54.4766 225.799L55.759 225.021L57.0414 224.243C55.2744 221.331 53.6757 218.288 52.2397 215.136L50.8747 215.758ZM61.7597 233.599L60.5912 234.54C62.8247 237.314 65.2489 239.93 67.8709 242.362L68.891 241.263L69.9111 240.163C67.3997 237.833 65.0741 235.325 62.9281 232.659L61.7597 233.599ZM77.081 247.775L76.2402 249.017C79.1473 250.985 82.2417 252.757 85.5288 254.313L86.1707 252.958L86.8125 251.602C83.6641 250.111 80.7026 248.415 77.9217 246.533L77.081 247.775ZM95.9327 256.731L95.493 258.165C98.7929 259.177 102.251 259.995 105.872 260.605L106.121 259.126L106.37 257.647C102.875 257.058 99.5437 256.269 96.3724 255.297L95.9327 256.731ZM116.526 260.259L116.447 261.757C119.864 261.937 123.406 261.949 127.076 261.784L127.008 260.285L126.941 258.787C123.364 258.948 119.92 258.936 116.605 258.761L116.526 260.259ZM137.44 259.366L137.632 260.853C141.011 260.417 144.487 259.841 148.061 259.119L147.764 257.649L147.467 256.178C143.959 256.887 140.553 257.451 137.248 257.878L137.44 259.366ZM157.959 255.257L158.344 256.707C161.653 255.827 165.039 254.829 168.505 253.71L168.043 252.283L167.582 250.855C164.165 251.959 160.829 252.942 157.573 253.808L157.959 255.257ZM177.906 248.843L178.431 250.248C181.627 249.053 184.886 247.76 188.209 246.366L187.628 244.983L187.048 243.6C183.76 244.979 180.538 246.258 177.381 247.438L177.906 248.843ZM197.21 240.759L197.839 242.121C199.429 241.387 201.033 240.63 202.651 239.852L202 238.5L201.35 237.148C199.746 237.92 198.157 238.67 196.581 239.397L197.21 240.759ZM202 238.5L202.651 239.852C204.21 239.101 205.762 238.368 207.307 237.652L206.676 236.291L206.046 234.93C204.487 235.652 202.922 236.392 201.35 237.148L202 238.5ZM216.007 232.135L216.596 233.514C219.762 232.16 222.897 230.878 226.001 229.665L225.455 228.268L224.909 226.871C221.776 228.095 218.612 229.389 215.417 230.755L216.007 232.135ZM235.023 224.705L235.523 226.119C238.778 224.968 241.997 223.892 245.179 222.889L244.727 221.458L244.276 220.028C241.061 221.042 237.81 222.128 234.523 223.291L235.023 224.705ZM254.54 218.553L254.94 219.999C258.268 219.078 261.552 218.237 264.793 217.469L264.447 216.01L264.102 214.55C260.825 215.326 257.504 216.177 254.141 217.107L254.54 218.553ZM274.438 213.846L274.727 215.318C278.115 214.653 281.451 214.069 284.736 213.56L284.506 212.078L284.276 210.595C280.953 211.11 277.577 211.701 274.149 212.374L274.438 213.846ZM294.659 210.719L294.827 212.21C298.268 211.823 301.647 211.518 304.962 211.288L304.859 209.791L304.755 208.295C301.397 208.528 297.975 208.837 294.491 209.229L294.659 210.719ZM315.08 209.307L315.118 210.807C318.577 210.72 321.961 210.713 325.268 210.779L325.297 209.279L325.327 207.779C321.976 207.713 318.547 207.72 315.043 207.808L315.08 209.307ZM335.502 209.714L335.404 211.211C338.88 211.44 342.261 211.745 345.544 212.116L345.712 210.626L345.881 209.135C342.552 208.759 339.124 208.449 335.6 208.218L335.502 209.714ZM355.817 212.008L355.579 213.489C359.044 214.046 362.383 214.671 365.594 215.346L365.902 213.878L366.211 212.41C362.955 211.725 359.569 211.092 356.056 210.527L355.817 212.008ZM375.848 216.218L375.47 217.669C378.899 218.563 382.15 219.501 385.219 220.457L385.665 219.025L386.111 217.593C383.001 216.623 379.704 215.672 376.226 214.766L375.848 216.218ZM395.365 222.297L394.853 223.707C398.347 224.976 401.517 226.224 404.355 227.392L404.926 226.005L405.497 224.617C402.627 223.437 399.417 222.173 395.877 220.887L395.365 222.297ZM414.326 230.033L413.726 231.408C415.601 232.227 417.194 232.915 418.465 233.401L419 232L419.536 230.599C418.342 230.142 416.814 229.483 414.927 228.659L414.326 230.033Z" fill="#F5BE30"/>
</svg>
