<svg width="24" height="24" viewBox="0 0 24 24" fill="none" xmlns="http://www.w3.org/2000/svg">
<path opacity="0.25" d="M16.0971 2H19.4831C20.8854 2 22.0216 3.14585 22.0216 4.55996V7.97452C22.0216 9.38864 20.8854 10.5345 19.4831 10.5345H16.0971C14.6948 10.5345 13.5586 9.38864 13.5586 7.97452V4.55996C13.5586 3.14585 14.6948 2 16.0971 2Z" fill="black"/>
<path d="M7.94824 13.4648C9.35024 13.465 10.4861 14.6106 10.4863 16.0244V19.4395C10.4863 20.8525 9.35034 21.9989 7.94824 21.999H4.56152C3.15948 21.9988 2.02348 20.8524 2.02344 19.4395V16.0244C2.02365 14.6106 3.15959 13.4651 4.56152 13.4648H7.94824ZM19.4834 13.4648C20.8854 13.465 22.0213 14.6106 22.0215 16.0244V19.4395C22.0214 20.8525 20.8855 21.9989 19.4834 21.999H16.0967C14.6946 21.9988 13.5586 20.8524 13.5586 19.4395V16.0244C13.5588 14.6106 14.6947 13.4651 16.0967 13.4648H19.4834ZM7.94824 2C9.35024 2.00017 10.4861 3.14575 10.4863 4.55957V7.97461C10.4863 9.38858 9.35034 10.534 7.94824 10.5342H4.56152C3.15948 10.5339 2.02348 9.38853 2.02344 7.97461V4.55957C2.02365 3.14579 3.15959 2.00024 4.56152 2H7.94824Z" fill="black"/>
</svg>
