<svg width="24" height="24" viewBox="0 0 24 24" fill="none" xmlns="http://www.w3.org/2000/svg">
<path d="M4.87573 12.874L10.5877 18.586C11.2537 19.253 11.5877 19.586 12.0017 19.586C12.4157 19.586 12.7497 19.253 13.4157 18.586L19.1277 12.874C19.5527 12.449 19.7657 12.236 19.8307 11.96C19.8957 11.683 19.8007 11.398 19.6107 10.827L18.9137 8.735C18.4737 7.415 18.2537 6.755 17.7297 6.378C17.2057 6 16.5097 6 15.1187 6H8.88473C7.49373 6 6.79773 6 6.27473 6.378C5.74973 6.755 5.52973 7.415 5.08973 8.735L4.39273 10.827C4.20273 11.397 4.10773 11.683 4.17273 11.96C4.23773 12.236 4.45073 12.449 4.87573 12.874Z" stroke="black" stroke-width="1.5" stroke-linecap="round"/>
</svg>
